<?xml version="1.0" encoding="UTF-8" standalone="no"?>
<!-- Created with Inkscape (http://www.inkscape.org/) -->

<svg
   xmlns:dc="http://purl.org/dc/elements/1.1/"
   xmlns:cc="http://creativecommons.org/ns#"
   xmlns:rdf="http://www.w3.org/1999/02/22-rdf-syntax-ns#"
   xmlns:svg="http://www.w3.org/2000/svg"
   xmlns="http://www.w3.org/2000/svg"
   xmlns:sodipodi="http://sodipodi.sourceforge.net/DTD/sodipodi-0.dtd"
   xmlns:inkscape="http://www.inkscape.org/namespaces/inkscape"
   width="59.331001"
   height="26.787001"
   viewBox="0 0 15.697994 7.087394"
   version="1.1"
   id="svg4416"
   sodipodi:docname="Semibreve.svg"
   inkscape:version="0.92.3 (2405546, 2018-03-11)">
  <defs
     id="defs4410" />
  <sodipodi:namedview
     id="base"
     pagecolor="#ffffff"
     bordercolor="#666666"
     borderopacity="1.0"
     inkscape:pageopacity="0.0"
     inkscape:pageshadow="2"
     inkscape:zoom="1.979899"
     inkscape:cx="49.105675"
     inkscape:cy="8.2217575"
     inkscape:document-units="mm"
     inkscape:current-layer="layer1"
     showgrid="false"
     units="px"
     inkscape:window-width="1366"
     inkscape:window-height="700"
     inkscape:window-x="0"
     inkscape:window-y="0"
     inkscape:window-maximized="1" />
  <metadata
     id="metadata4413">
    <rdf:RDF>
      <cc:Work
         rdf:about="">
        <dc:format>image/svg+xml</dc:format>
        <dc:type
           rdf:resource="http://purl.org/dc/dcmitype/StillImage" />
        <dc:title></dc:title>
      </cc:Work>
    </rdf:RDF>
  </metadata>
  <g
     inkscape:label="Livello 1"
     inkscape:groupmode="layer"
     id="layer1"
     transform="translate(0,-289.91258)">
    <path
       class="Note"
       d="m 7.863337,289.91246 c -3.62167,0 -4.90956,1.83751 -4.90956,3.54376 0,1.70625 1.28789,3.54376 4.90956,3.54376 3.62169,0 4.88088,-1.83751 4.88088,-3.54376 0,-1.70625 -1.25919,-3.54376 -4.88088,-3.54376 m -2.17791,2.38712 c -0.0287,-0.10664 -0.0287,-0.20918 -0.0287,-0.31582 0,-0.20918 0.0533,-0.41836 0.15996,-0.60293 0.18047,-0.2625 0.49629,-0.44707 0.89004,-0.525 0.34043,-0.0779 0.525,-0.13125 1.20996,-0.13125 h 0.0246 c 1.05,0 1.39044,0.97207 1.68165,1.96875 l 0.0779,0.2625 c 0.20919,0.68086 0.31584,1.25918 0.31584,1.70625 0,0.31582 -0.0533,0.60293 -0.15996,0.81211 -0.15588,0.29121 -0.41838,0.47578 -0.86544,0.57832 -0.23788,0.0533 -0.63163,0.0779 -0.63163,0.0779 -0.13125,0 -0.23381,0.0287 -0.34043,0.0287 -0.84082,0 -1.36582,-0.31581 -1.73088,-1.44374 -0.31581,-0.97207 -0.36912,-1.25918 -0.60291,-2.41582"
       id="path80"
       inkscape:connector-curvature="0"
       style="stroke-width:0.26249999" />
  </g>
</svg>
